# xmcd
#
# Track frame offsets: 
#        150
#        22277
#        44068
#        66494
#        94751
#        116101
#        136568
#        159707
#        180467
#        200586
#        222725
#        242308
#        262922
#        284049
#        305904
#
# Disc length: 4377 seconds
#
# Revision: 0
# Processed by: cddbd v1.5.2PL0 Copyright (c) Steve Scherf et al.
# Submitted via: ExactAudioCopyFreeDBPlugin 1.0
#
DISCID=ef11170f
DTITLE=群星 - DTS-ES6.1大震撼人声CDA
DYEAR=2008
DGENRE=Acid
TTITLE0=谭艳 - 我是一只小小鸟
TTITLE1=孙露 - 把悲伤留给自己
TTITLE2=小骆驼 - 你把我灌醉
TTITLE3=雷婷 - 挪威的森林
TTITLE4=江智民 - 当爱已成往事
TTITLE5=谭艳 -  无情的雨无情的你
TTITLE6=邓杰 - 为爱痴狂
TTITLE7=孙露 - 好聚好散
TTITLE8=江智民 - 味道
TTITLE9=肖超 - 雨一直下
TTITLE10=孙露 - 朋友别哭
TTITLE11=雷婷 - 最浪漫的事
TTITLE12=雷婷 - 一场游戏一场梦
TTITLE13=张玮伽 - 让我一次爱个够
TTITLE14=小骆驼 - 明天你是否依然爱我
EXTD=
EXTT0=
EXTT1=
EXTT2=
EXTT3=
EXTT4=
EXTT5=
EXTT6=
EXTT7=
EXTT8=
EXTT9=
EXTT10=
EXTT11=
EXTT12=
EXTT13=
EXTT14=
PLAYORDER=
